<?xml version="1.0" encoding="UTF-8"?>
<!DOCTYPE svg PUBLIC "-//W3C//DTD SVG 1.1//EN" "http://www.w3.org/Graphics/SVG/1.1/DTD/svg11.dtd">
<!-- Creator: CorelDRAW X6 -->
<svg xmlns="http://www.w3.org/2000/svg" xml:space="preserve" width="11in" height="8.5in" version="1.1" style="shape-rendering:geometricPrecision; text-rendering:geometricPrecision; image-rendering:optimizeQuality; fill-rule:evenodd; clip-rule:evenodd"
viewBox="0 0 11000 8500"
 xmlns:xlink="http://www.w3.org/1999/xlink">
 <defs>
  <style type="text/css">
   <![CDATA[
    .fil2 {fill:#3E4095;fill-rule:nonzero}
    .fil1 {fill:#C0333D;fill-rule:nonzero}
    .fil0 {fill:#FEFEFE;fill-rule:nonzero}
   ]]>
  </style>
 </defs>
 <g id="__x0023_Layer_x0020_1">
  <metadata id="CorelCorpID_0Corel-Layer"/>
  <path class="fil0" d="M6773 4863c-97,743 -617,1003 -617,1003 -817,505 -1701,-208 -1701,-208l-230 245c327,242 650,358 933,407 -404,-67 -769,-249 -1060,-512 107,-89 643,-563 576,-1085 0,0 16,-1282 115,-1567 0,0 72,-658 777,-826l0 -183c0,0 -4,0 -10,-1 -1,0 -2,0 -3,0 0,0 0,0 0,0 -1,0 -2,0 -3,0 -2,0 -4,0 -6,0 -1,0 -2,0 -3,0 -1,0 -1,0 -2,0 -1,0 -3,0 -4,0 -1,0 -1,0 -2,0 -1,0 -3,0 -4,0 -1,0 -1,0 -2,0 75,1 150,5 223,14l0 159c798,104 839,773 839,773 67,505 -617,1033 -617,1033 862,-30 802,750 802,750z"/>
  <path class="fil1" d="M7606 4237c0,852 -507,1586 -1236,1915 -90,37 -186,71 -288,100 0,0 -66,25 -180,48 0,0 0,0 0,0 -129,25 -262,38 -398,38 -118,0 -233,-10 -346,-28 0,0 0,0 0,0 -283,-49 -606,-165 -933,-407l230 -245c0,0 884,713 1701,208 0,0 520,-260 617,-1003 0,0 59,-780 -802,-750 0,0 683,-527 617,-1033 0,0 -41,-669 -839,-773l0 -159c126,15 248,40 366,76 137,45 300,111 469,208 0,0 0,0 0,0 612,367 1022,1038 1022,1804z"/>
  <path class="fil2" d="M5565 2137l0 183c-705,168 -777,826 -777,826 -99,285 -115,1567 -115,1567 67,522 -469,996 -576,1085 -427,-385 -695,-942 -695,-1562 0,-1020 727,-1870 1691,-2061 1,0 1,0 2,0 142,-27 262,-36 346,-39 1,0 3,0 4,0 1,0 3,0 4,0 3,0 6,0 8,0 3,0 6,0 9,0 0,0 0,0 1,0 4,0 7,0 11,0 1,0 1,0 2,0 4,0 7,0 11,0 4,0 8,0 12,0 2,0 4,0 6,0 1,0 2,0 3,0 1,0 2,0 3,0 1,0 2,0 3,0 2,0 4,0 6,0 1,0 3,0 4,0 1,0 3,0 4,0 1,0 1,0 2,0 1,0 3,0 4,0 1,0 1,0 2,0 1,0 2,0 3,0 2,0 4,0 6,0 1,0 2,0 3,0 0,0 0,0 0,0 1,0 2,0 3,0 7,0 10,1 10,1z"/>
 </g>
</svg>
